<?xml version="1.0" standalone="no"?>
<!DOCTYPE svg PUBLIC "-//W3C//DTD SVG 20010904//EN"
 "http://www.w3.org/TR/2001/REC-SVG-20010904/DTD/svg10.dtd">
<svg version="1.0" xmlns="http://www.w3.org/2000/svg"
 width="139pt" height="139pt" viewBox="0 0 139 139"
 preserveAspectRatio="xMidYMid meet">

<g transform="translate(0.000000,139.000000) scale(0.100000,-0.100000)"
fill="#000000" stroke="none">
<path d="M360 720 l0 -330 120 0 120 0 0 45 0 45 -70 0 -70 0 0 235 0 235 240
0 240 0 0 -235 0 -235 -70 0 -70 0 0 -45 0 -45 120 0 120 0 0 330 0 330 -340
0 -340 0 0 -330z"/>
<path d="M640 460 l0 -260 -72 0 -73 0 95 -95 c52 -52 102 -95 110 -95 8 0 58
43 110 95 l95 95 -73 0 -72 0 0 260 0 260 -60 0 -60 0 0 -260z"/>
</g>
<g transform="translate(0.000000,139.000000) scale(0.100000,-0.100000)"
fill="#1c9e66" stroke="none">
<path d="M260 720 l0 -430 170 0 170 0 0 50 0 50 -120 0 -120 0 0 330 0 330
340 0 340 0 -2 -327 -3 -328 -117 -3 -118 -3 0 -49 0 -50 170 0 170 0 0 430 0
430 -440 0 -440 0 0 -430z"/>
</g>
</svg>
