<?xml version="1.0" encoding="utf-8"?>
<!-- Generator: Adobe Illustrator 24.3.1, SVG Export Plug-In . SVG Version: 6.00 Build 0)  -->
<svg version="1.1" id="Laag_1" xmlns="http://www.w3.org/2000/svg" xmlns:xlink="http://www.w3.org/1999/xlink" x="0px" y="0px"
	 viewBox="0 0 850.4 850.4" style="enable-background:new 0 0 850.4 850.4;" xml:space="preserve">
<style type="text/css">
	.st0{fill:#E8C3A7;}
	.st1{fill:#30302F;}
	.st2{fill:#858585;}
	.st3{fill:#4FA16A;}
	.st4{fill:#4D1E26;}
	.st5{fill:#8F5E23;}
	.st6{fill:none;stroke:#C3007A;stroke-width:0.25;stroke-miterlimit:10;}
	.st7{fill:#161411;}
	.st8{fill:#6F6E6E;}
	.st9{fill:#9A9A9A;}
	.st10{fill:#947D43;}
	.st11{fill:#C4A083;}
	.st12{fill:#FFFFFF;}
	.st13{fill:#353831;}
	.st14{clip-path:url(#SVGID_2_);}
	.st15{clip-path:url(#SVGID_4_);}
	.st16{fill:#DB0812;}
	.st17{fill:#C00D0D;}
</style>
<g id="Laag_2_1_">
</g>
<g>
	<path class="st0" d="M518.4,365.8l21.9,24.1c5.4,5.9,4.3,15.3-2.4,19.8l-50.8,33.9c0,0-1.2,0.8,0.4,2.5c1.7,1.7,13,13.5,3.6,25.9
		l0.2,3l4.2,3.2l3.3-2.9c0,0,4.4-3.6,9.1,0.2L494.7,491l-8.5,2.9c0,0-9.5-4-12-27l8.2-37.2l38.1-31.9l-15-15.6"/>
</g>
<polyline class="st1" points="404.4,522.3 385.5,514.9 385.1,563 398.3,570.8 "/>
<path class="st1" d="M404.2,523.1l-23.9-8.5c-0.3,0.1,13.4-19.9,13.4-19.9l6.5-0.7"/>
<path class="st1" d="M481.1,495.6l9.8,21.4l-3.8,2.7l0.7,40.2l-3.8,5.8l-9.1-22c0,0-0.2-21.8-0.8-26.1
	C473.3,513.4,481.1,495.6,481.1,495.6z"/>
<path class="st1" d="M395.5,496.3c-0.1,1.4,2.1,6.7,1.9,8.2c-2.2,20.9-4.9,50.2-8.1,89.7c-3.7,45.6-5.6,74.8-6.7,93.1
	c0,0.9,0.1,1.8,0.6,2.5l2.2,4c0.4,0.7,0.6,1.5,0.6,2.3v8.9c0,1.2,0.5,2.3,1.3,3.2c3.3,3.5,12.5,12.6,18.9,12.6c8,0,5.5-3.5,12.9-7.3
	s7.1-5.5,2.9-8.7c0,0,6.9-38.6,12.9-115.7s6.4-88.9,6.4-88.9h2.2c0,0-0.2,11.7,1.4,89c1.6,77.3,6.3,116.1,6.3,116.1
	c-4.4,2.9-4.7,4.7,2.4,8.8s4.5,7.5,12.4,7.9c6.4,0.3,12.1-8.3,15.6-11.7c0.9-0.8,1.4-2,1.5-3.2l0.5-8.9c0-0.8,0.3-1.6,0.7-2.2
	l2.4-3.9c0.5-0.8,0.7-1.6,0.7-2.5c0-18.3-0.3-47.6-1.4-93.2c-1-42.4-1.6-74-3-96.2c-1.8-29.2-0.4-41.2-0.4-41.2l-89.3-0.3
	L395.5,496.3z"/>
<path class="st2" d="M479.1,363.6c0,0-4,7.4-4,7.9s-3.8,10.3-3.9,10.9c-0.1,0.6-5.1,6-5.1,6s-12.2,1.9-13.4,1.6
	c-1.2-0.3-18.4-3.9-22.7-5.9s-17-8.1-18.2-9.5c-1.2-1.4-15.7-13.2-16.8-14.4c-1.1-1.2-7.3-9.9-7.8-10.6c-0.4-0.8-3.3-8.1-3.4-9.6
	c-0.1-1.6-0.7-10.3-0.6-10.9c0.1-0.6,1.4-8,1.4-8l3.1-3.2c4.6-2.3,33.1-5.1,33.1-5.1l33.7,4.4c0.7,0.7,23,8.5,23,8.5
	s2.8-0.7,6.9,2.9l40.5,33.6l-24.7,25.5l-21.7-26.1"/>
<path class="st2" d="M483,355.8c0,0-0.7,14-2.3,18.3l5.3,86.1c0,0-36.9,15.5-97.7-0.7c3.1-31.2,0.6-110.7,0.6-110.7"/>
<g>
	<polygon class="st3" points="464.2,366.3 464.2,368.9 458.6,368.9 458.6,346.1 473,346.1 473,368.9 467.4,368.9 467.4,366.3 
		467.4,366.3 471.4,366.3 471.4,348.7 460.2,348.7 460.2,366.3 464.2,366.3 	"/>
	<polygon class="st1" points="471.4,366.3 471.4,348.7 460.2,348.7 460.2,366.3 464.2,366.3 464.2,363.7 461.8,363.7 461.8,351.3 
		469.8,351.3 469.8,363.7 467.4,363.7 467.4,366.3 	"/>
	<polygon class="st1" points="465.8,376.4 469.4,371.2 466.8,371.2 466.8,357.3 464.7,357.3 464.7,371.2 462.2,371.2 	"/>
</g>
<g>
	<path class="st4" d="M436.2,745.7l-2.1,6.8c-0.1,0.3-0.3,0.6-0.6,0.8c-6.4,3.6-24.5,3.9-33.6-5c0,0-4-3.5-6.3-8
		c-0.1-0.2-0.1-0.4-0.1-0.6l0.1-5.5"/>
	<path class="st5" d="M405.2,713.7c7.8-0.6,8.7,14,17.5,20c8.8,6,13.8,5.7,13.5,11.5c-0.2,5.8-24.7,8.9-36-1.9c0,0-4.2-3.6-6.6-8.2
		c-0.3-0.5-0.3-1.1-0.2-1.7C395.2,727,399.4,714.2,405.2,713.7z"/>
	<path class="st4" d="M406.7,729c0.1,0,0.2,0,0.3-0.1c3.7-1.7,7-0.9,7-0.9c0.5,0.1,1.1-0.2,1.2-0.8s-0.2-1.1-0.8-1.2
		c-0.2,0-3.9-0.9-8.3,1c-0.5,0.2-0.8,0.8-0.5,1.3C405.9,728.8,406.3,729.1,406.7,729z"/>
	<path class="st4" d="M411.6,737.1c0.1,0,0.3,0,0.4-0.1c3.7-1.8,6.9-1.2,7-1.2c0.5,0.1,1.1-0.3,1.2-0.8s-0.3-1.1-0.8-1.2
		c-0.2,0-4-0.7-8.3,1.4c-0.5,0.2-0.7,0.9-0.5,1.4C410.8,736.9,411.2,737.2,411.6,737.1z"/>
	<path class="st4" d="M408,733.8c0.1,0,0.3,0,0.4-0.1c4.3-2.2,8.2-1.6,8.2-1.6c0.6,0.1,1.1-0.3,1.2-0.9c0.1-0.6-0.3-1.1-0.9-1.2
		c-0.2,0-4.6-0.6-9.5,1.8c-0.5,0.2-0.7,0.9-0.5,1.4C407.2,733.6,407.6,733.8,408,733.8z"/>
</g>
<g>
	<g>
		<path class="st4" d="M500.4,741.4l-1.8,6.7c-0.1,0.3-0.3,0.6-0.5,0.8c-6.1,3.8-23.8,4.9-33.1-3.4c0,0-4-3.2-6.5-7.5
			c-0.1-0.2-0.2-0.4-0.2-0.6l-0.2-5.3"/>
		<path class="st5" d="M468.7,711.5c7.6-0.9,9.1,13.3,18,18.8s13.7,5,13.7,10.7c0,5.7-23.8,9.8-35.3-0.3c0,0-4.3-3.3-6.8-7.7
			c-0.3-0.5-0.4-1.1-0.2-1.7C459.6,724.9,463.1,712.1,468.7,711.5z"/>
	</g>
	<path class="st4" d="M470.8,726.4c0.1,0,0.2,0,0.3-0.1c3.6-1.8,6.8-1.2,6.8-1.2c0.5,0.1,1.1-0.3,1.2-0.8s-0.2-1.1-0.8-1.2
		c-0.2,0-3.9-0.7-8.1,1.4c-0.5,0.2-0.7,0.8-0.5,1.3C470,726.2,470.4,726.4,470.8,726.4z"/>
	<path class="st4" d="M476,734c0.1,0,0.2,0,0.4-0.1c3.5-2,6.7-1.5,6.8-1.5c0.5,0.1,1-0.3,1.1-0.8s-0.3-1-0.9-1.1
		c-0.2,0-3.9-0.5-8,1.8c-0.5,0.3-0.7,0.9-0.4,1.4C475.2,733.9,475.6,734.1,476,734z"/>
	<path class="st4" d="M472.3,730.9c0.1,0,0.2,0,0.4-0.1c4.1-2.3,8-2,8-2c0.5,0.1,1-0.3,1.1-0.9s-0.3-1-0.9-1.1
		c-0.2,0-4.5-0.4-9.2,2.2c-0.5,0.3-0.6,0.9-0.4,1.4C471.5,730.8,472,731,472.3,730.9z"/>
</g>
<path class="st6" d="M385.1,563"/>
<path class="st7" d="M392.6,508.1c0.5,0.3,0.9,0.9,0.9,1.6c0,1-0.9,1.9-1.9,1.9c-0.9,0-1.6-0.6-1.8-1.4c0,1.2,1,2.1,2.2,2.1
	c1.2,0,2.2-1,2.2-2.2C394,509.2,393.4,508.4,392.6,508.1z"/>
<path class="st8" d="M453,320.5c0,0,0.8,18.5,0.1,27.7h-4.9c0.7-9.2-0.1-27.7-0.1-27.7"/>
<path class="st6" d="M444.4,417.6"/>
<path class="st9" d="M451,329.7c-0.8,0-1.5,0.7-1.5,1.5s0.7,1.5,1.5,1.5s1.5-0.7,1.5-1.5C452.4,330.4,451.8,329.7,451,329.7z"/>
<path class="st9" d="M451,338.9c-0.8,0-1.5,0.7-1.5,1.5s0.7,1.5,1.5,1.5s1.5-0.7,1.5-1.5S451.8,338.9,451,338.9z"/>
<path class="st0" d="M448.4,341l-0.4-20.5c0,0-0.7-6.3-2.1-10.6l-4.4-2c-1.8-3.3-0.9-12.9-0.9-12.9l-15.3-6.9c0,0,0.7,17.3-1.8,21.3
	c6.6,3.5,17.7,10.6,17.7,10.6s4.8,14,7.1,23.5C448.4,342.7,448.4,341.9,448.4,341z"/>
<g>
	<path class="st9" d="M440.4,299.4c0,3,0.1,6.6,1.1,8.5l4.4,2c1.4,4.3,2.1,10.6,2.1,10.6c8.8,8.1,9.1,16,9.1,16
		C459.9,301.1,440.6,299.4,440.4,299.4z"/>
</g>
<path class="st7" d="M380.4,514.7c0.3-0.1,22,6.9,22,6.9l3.2-11.6l0.3,15L380.4,514.7z"/>
<polyline class="st7" points="385.1,563 396.5,568.7 403.5,526.2 399.5,573 385.1,563 "/>
<path class="st2" d="M392,348.4h-10.8c0,0,6,14.1,8.2,18.5h3.5L392,348.4z"/>
<g id="Laag_3">
</g>
<path class="st10" d="M368.4,204.1c-5.3-27.1,0.2-72.2,0.2-72.2c49.9-37.7,75.3-37.8,75.3-37.8c0,6.5-4.7,11.8-4.7,11.8
	c23.3-10.8,36.9-11.6,36.9-11.6c0.3,6.7-2.7,11.8-2.7,11.8c17.5-8.5,38.7-11.5,38.7-11.5c2.2,15.3-7,27.8-7,27.8
	c8.8-2.3,15.5-10.8,15.5-10.8c7.3,40.7-20.4,45.7-20.4,45.7s-0.2,28.8-3.5,56c0,0-1.2,19.1-11.2,26.2H373.6"/>
<path class="st0" d="M366.9,203.3c10.8,0,13.6,20.8,13.6,20.8c0.5-22.1,6.3-36.2,6.3-36.2c-1.2-17.3-0.4-24.4-0.4-24.4
	c20.5-14.4,102-2.2,102-2.2s4.1,26.8,2.1,68.7h1.4c-2.7,36.4-28.2,68.1-55.8,68.1c-22,0-44.3-20.8-53.6-48
	c-1.2,1.2-7.3,5.8-15.7-9.2C354.8,219.7,357.6,203.3,366.9,203.3z"/>
<path class="st0" d="M491.5,226.9c0,0,2.5-18.4,12.3-18.4c8.4,0,12.5,13.8,2.3,33.8c-8.5,16.5-17.6,6.9-17.6,6.9L491.5,226.9z"/>
<path class="st11" d="M426.6,213.5c0.2,0.4-1.8-14-14-9.2C412.6,204.3,421.9,201.7,426.6,213.5z"/>
<path class="st4" d="M457.3,264.8c-0.2-0.3-24.9,2.4-44.7-6.2c0,0,0.3,17.1,23.2,19.1C454.3,279.2,457.3,264.8,457.3,264.8z"/>
<path class="st12" d="M413.2,261.9c-0.5-2-0.6-3.4-0.6-3.4c19.7,8.6,44.5,5.9,44.7,6.2c0,0-0.5,2.6-2.5,5.4
	C449.2,270.4,427.2,271.3,413.2,261.9z"/>
<path class="st11" d="M450,250c6.8-7-8.1-39.7-8.1-39.7s18.5,32.4,9.3,41.2c-7.7,7.4-17.1,0.2-17.1,0.2S442.6,257.7,450,250z"/>
<path class="st13" d="M436.2,202c0,0-7.6-25.9-36.8-15.5l-0.8,9.8C398.7,196.3,418.1,189.8,436.2,202z"/>
<path class="st13" d="M449.8,202.7c0,0,5.2-17.8,25.2-10.6l0.6,6.7C475.5,198.8,462.2,194.3,449.8,202.7z"/>
<path class="st7" d="M381.1,214.9c5.4,0.1,5.6,5.6,5.6,5.6c0.4,6.2,3.2,23.9,24.3,23.9c21,0,24-28.1,24-28.1s-4.7-6.3,6.1-6.3
	c10.8,0,5.9,6.3,5.9,6.3s3,28.1,24,28.1c21.1,0,25-17.8,25.4-23.9c0,0,0.3-5.5,5.8-5.5v-5.8c-4-0.2-8.8-1-12.1-3.4
	c-3.8-2.8-8.9-5.9-17.5-5.9c-10.7,0-16.8,3.2-20.2,6.9c-0.9,1-2.5,1.2-3.5,0.3c-0.4-0.4-0.8-0.9-1.3-1.6h-13.5
	c-0.2,0.4-0.5,0.7-0.7,0.9c-1,1.2-2.9,1.2-4,0.1c-3.5-3.6-9.5-6.7-20-6.7c-8.7,0-13.8,3.1-17.6,5.9c-3.2,2.4-7.7,3.2-11.6,3.4h-4.9
	c1.1,1.8,2,3.8,2.7,5.8L381.1,214.9L381.1,214.9z M472.6,202.7c19.5,0,19.7,16.3,19.7,16.3s1,22.7-21.1,22.7
	c-19.3,0-19.4-22.5-19.4-22.5S450.5,202.7,472.6,202.7z M389.9,219c0,0,0.2-16.3,19.7-16.3c22.1,0,20.7,16.5,20.7,16.5
	s-0.1,22.5-19.4,22.5C388.9,241.7,389.9,219,389.9,219z"/>
<g>
	<path class="st12" d="M453.7,220.4c0,0,2.5,6.7,13.3,6.7s13.4-6.7,13.4-6.7s-2.5-7.8-13.3-7.8C456.4,212.7,453.7,220.4,453.7,220.4
		z"/>
	<g>
		<g>
			<defs>
				<path id="SVGID_1_" d="M453.7,220.4c0,0,2.5,6.7,13.3,6.7s13.4-6.7,13.4-6.7s-2.5-7.8-13.3-7.8
					C456.4,212.7,453.7,220.4,453.7,220.4z"/>
			</defs>
			<clipPath id="SVGID_2_">
				<use xlink:href="#SVGID_1_"  style="overflow:visible;"/>
			</clipPath>
			<g class="st14">
				<circle class="st4" cx="467.5" cy="218" r="7.6"/>
				<circle class="st7" cx="467.5" cy="218" r="4.1"/>
				<circle class="st12" cx="464.7" cy="215.2" r="1.2"/>
			</g>
		</g>
	</g>
	<path class="st10" d="M467.2,214.2c-10.7,0-13.4,6.1-13.4,6.2c0-0.1,2.7-7.8,13.4-7.8s13.3,7.6,13.3,7.8
		C480.4,220.3,477.8,214.2,467.2,214.2z"/>
</g>
<path class="st12" d="M399.5,220.4c0,0,2.5,6.7,13.3,6.7s13.4-6.7,13.4-6.7s-2.5-7.8-13.3-7.8C402.2,212.7,399.5,220.4,399.5,220.4z
	"/>
<g>
	<g>
		<defs>
			<path id="SVGID_3_" d="M399.5,220.4c0,0,2.5,6.7,13.3,6.7s13.4-6.7,13.4-6.7s-2.5-7.8-13.3-7.8
				C402.2,212.7,399.5,220.4,399.5,220.4z"/>
		</defs>
		<clipPath id="SVGID_4_">
			<use xlink:href="#SVGID_3_"  style="overflow:visible;"/>
		</clipPath>
		<g class="st15">
			<circle class="st4" cx="413.3" cy="218" r="7.6"/>
			<circle class="st7" cx="413.3" cy="218" r="4.1"/>
			<circle class="st12" cx="410.5" cy="215.2" r="1.2"/>
		</g>
	</g>
</g>
<path class="st10" d="M413,214.2c-10.7,0-13.4,6.1-13.4,6.2c0-0.1,2.7-7.8,13.4-7.8s13.3,7.6,13.3,7.8
	C426.2,220.3,423.6,214.2,413,214.2z"/>
<g id="Laag_3_1_">
</g>
<path class="st0" d="M440.4,312.2c0,0-4.2-4.7-4.8-5.7c-0.7-1,0.7-11.3,0.7-11.3l6.2-0.2c0,0,0,9.2,1.2,13.9L440.4,312.2z"/>
<g>
	<path class="st0" d="M356.8,367l-15.1,28.8c-3.7,7.1-0.6,15.4,7,18.2l5.2,1.6l33-60.3L356.8,367z"/>
</g>
<path class="st2" d="M391.6,360.4l-13,23.7l-29-20.4l30.1-40.6c3-4.5,10-6,10-6"/>
<g>
	<g>
		<path class="st16" d="M433.4,457.4l-80.5-35.4l43.8-99.6l80.5,35.4c0.8,0.4,1.2,1.4,0.9,2.2l-42.4,96.5
			C435.2,457.4,434.3,457.8,433.4,457.4z"/>
		
			<rect x="380" y="320.5" transform="matrix(0.9155 0.4023 -0.4023 0.9155 183.0136 -121.5581)" class="st17" width="1.9" height="108.8"/>
		<g>
			<path class="st9" d="M382.4,364.7l-4.9-2.1c-0.7-0.3-1-1.1-0.7-1.7l0,0c0.3-0.7,1.1-1,1.7-0.7l4.9,2.1L382.4,364.7z"/>
			<path class="st9" d="M373.3,385.4l-4.9-2.1c-0.7-0.3-1-1.1-0.7-1.7l0,0c0.3-0.7,1.1-1,1.7-0.7l4.9,2.1L373.3,385.4z"/>
		</g>
	</g>
	<g>
		
			<rect x="402" y="353.8" transform="matrix(0.9155 0.4023 -0.4023 0.9155 185.2853 -141.1342)" class="st12" width="53.3" height="33.4"/>
		<g>
			<g>
				<path d="M413.9,379.6l-3-1.3l1.8-9.1l-2.3-1l-3.6,8.3l-3.3-1.4L415,349l5.6,2.4c1.8,0.8,2.8,1.7,3,2.6c0.3,1,0,2.4-0.8,4.2
					l-3.6,8.2c-0.8,1.9-2,3-3.5,3.2L413.9,379.6z M411.6,365.7l1.6,0.7c0.7,0.3,1.3,0.4,1.7,0.2c0.4-0.2,0.8-0.7,1.2-1.5l3.6-8.2
					c0.4-0.8,0.5-1.5,0.3-1.9c-0.2-0.4-0.6-0.8-1.3-1.1l-1.6-0.7L411.6,365.7z"/>
				<path d="M416,380.5l11.5-26.1l3.3,1.4L419.2,382L416,380.5z"/>
				<path d="M438.2,373.2l-4.3,9.7c-1.4,3.3-3.8,4.2-7.1,2.7c-3.4-1.5-4.3-3.9-2.9-7.1l1.9-4.4c0.8-1.9,2.2-2.9,4-3l0.1-0.1
					c-1-1.3-1.3-2.7-0.4-4.7l2.1-4.8c1.4-3.1,3.7-4,7-2.6c3.3,1.4,4.3,3.7,2.9,6.9l-1.6,3.6l-3.2-1.4l1.5-3.5
					c0.6-1.4,0.3-2.3-0.8-2.9c-1.2-0.5-2.1-0.1-2.7,1.3l-2.2,5c-0.7,1.5-0.3,2.5,0.9,3L438.2,373.2z M433.8,374.5l-1.7-0.7
					c-1.3-0.6-2.2-0.1-2.9,1.4l-2.1,4.9c-0.6,1.4-0.3,2.4,0.9,2.9c1.2,0.5,2.1,0.1,2.7-1.3L433.8,374.5z"/>
				<path d="M452.6,368.7l-4.1-1.8l-3.9,8.9l4.1,1.8l-1.2,2.7l-4.1-1.8l-3.9,9l4.1,1.8l-1.2,2.8l-7.4-3.3l11.5-26.1l7.4,3.3
					L452.6,368.7z"/>
			</g>
			<rect x="435.7" y="372.8" transform="matrix(0.4023 -0.9155 0.9155 0.4023 -81.4222 623.9473)" width="2.9" height="3.2"/>
		</g>
	</g>
</g>
<g>
	<path class="st0" d="M447.5,442.4L447.5,442.4c2,0,3.9-1,5-2.6l2.1-2.9l6.9,0.1l5.1-5.5l-15.6-8.5c3.4-0.8,3.1-4,3.1-4
		c-2.7-0.1-12.6-5.7-16.4-7.5s-6.7,0.4-6.7,0.4s-17.2,8.7-19.8,10.2c-2.7,1.6-4.5-0.1-4.5-0.1l-61.8-32l-3.3,5.9
		c-4,7-0.8,15.9,6.7,18.8l57,22c7.5,2.9,16.9,7.9,27.6,12.8c3.9,1.8,8.5,0.7,11.2-2.6L447.5,442.4z"/>
</g>
<g>
	<path class="st9" d="M423.6,309.5c1.1-1.8,1.6-6.3,1.8-10.7h0c0,0-3.2,0-5.8,3s-6.3,7.5-6.3,7.5s3,17.3,17.6,30.4
		c0,0,6.6-15,10.5-19.6C441.2,320,430.2,313,423.6,309.5z"/>
</g>
</svg>
